<svg xmlns="http://www.w3.org/2000/svg" width="1600" height="900" viewBox="0 0 1600 900" preserveAspectRatio="xMidYMid meet">
 <defs><marker id="arrow" markerWidth="10" markerHeight="10" refX="9" refY="3" orient="auto"><path d="M0,0 L0,6 L9,3 z" fill="#475569"/></marker></defs>
 <rect width="100%" height="100%" fill="#FFFFFF"/>
 <text x="800" y="50" text-anchor="middle" font-family="Arial,sans-serif" font-size="32" font-weight="700" fill="#0F172A">FIG-05-001 — SCT Inst ISO 20022 message map</text>
 <text x="800" y="82" text-anchor="middle" font-family="Arial,sans-serif" font-size="16" fill="#475569">2025 EPC Inter-PSP Implementation Guidelines</text><rect x="90" y="330" width="300" height="120" rx="16" fill="#DBEAFE" stroke="#1D4ED8" stroke-width="2"/>
 <text x="240" y="384" text-anchor="middle" font-family="Arial,sans-serif" font-size="18" font-weight="600" fill="#0F172A"><tspan x="240" dy="0">pacs.008.001.08</tspan><tspan x="240" dy="24">Payment instruction</tspan></text><rect x="650" y="150" width="310" height="105" rx="16" fill="#DCFCE7" stroke="#15803D" stroke-width="2"/>
 <text x="805" y="196.5" text-anchor="middle" font-family="Arial,sans-serif" font-size="18" font-weight="600" fill="#0F172A"><tspan x="805" dy="0">pacs.002.001.10</tspan><tspan x="805" dy="24">Confirmation / status</tspan></text><rect x="650" y="330" width="310" height="105" rx="16" fill="#EEF2FF" stroke="#4338CA" stroke-width="2"/>
 <text x="805" y="376.5" text-anchor="middle" font-family="Arial,sans-serif" font-size="18" font-weight="600" fill="#0F172A"><tspan x="805" dy="0">pacs.028.001.03</tspan><tspan x="805" dy="24">Status inquiry</tspan></text><rect x="650" y="525" width="310" height="105" rx="16" fill="#FEF3C7" stroke="#B45309" stroke-width="2"/>
 <text x="805" y="571.5" text-anchor="middle" font-family="Arial,sans-serif" font-size="18" font-weight="600" fill="#0F172A"><tspan x="805" dy="0">camt.056.001.08</tspan><tspan x="805" dy="24">Recall request</tspan></text><rect x="1160" y="430" width="330" height="105" rx="16" fill="#FEF3C7" stroke="#B45309" stroke-width="2"/>
 <text x="1325" y="476.5" text-anchor="middle" font-family="Arial,sans-serif" font-size="18" font-weight="600" fill="#0F172A"><tspan x="1325" dy="0">camt.029.001.09</tspan><tspan x="1325" dy="24">Negative recall response</tspan></text><rect x="1160" y="590" width="330" height="105" rx="16" fill="#CCFBF1" stroke="#0F766E" stroke-width="2"/>
 <text x="1325" y="636.5" text-anchor="middle" font-family="Arial,sans-serif" font-size="18" font-weight="600" fill="#0F172A"><tspan x="1325" dy="0">pacs.004.001.09</tspan><tspan x="1325" dy="24">Return / positive outcome</tspan></text><line x1="390" y1="365" x2="650" y2="200" stroke="#475569" stroke-width="2.2"  marker-end="url(#arrow)"/>
 <rect x="445" y="264.5" width="150" height="24" rx="8" fill="#FFFFFF" opacity=".94"/><text x="520" y="282.5" text-anchor="middle" font-family="Arial,sans-serif" font-size="13" fill="#475569">normal processing</text><line x1="390" y1="390" x2="650" y2="382" stroke="#475569" stroke-width="2.2" stroke-dasharray="8 6" marker-end="url(#arrow)"/>
 <rect x="445" y="368" width="150" height="24" rx="8" fill="#FFFFFF" opacity=".94"/><text x="520" y="386" text-anchor="middle" font-family="Arial,sans-serif" font-size="13" fill="#475569">status investigation</text><line x1="390" y1="420" x2="650" y2="575" stroke="#475569" stroke-width="2.2" stroke-dasharray="8 6" marker-end="url(#arrow)"/>
 <rect x="445" y="479.5" width="150" height="24" rx="8" fill="#FFFFFF" opacity=".94"/><text x="520" y="497.5" text-anchor="middle" font-family="Arial,sans-serif" font-size="13" fill="#475569">recall process</text><line x1="960" y1="565" x2="1160" y2="482" stroke="#475569" stroke-width="2.2"  marker-end="url(#arrow)"/>
 <rect x="985" y="505.5" width="150" height="24" rx="8" fill="#FFFFFF" opacity=".94"/><text x="1060" y="523.5" text-anchor="middle" font-family="Arial,sans-serif" font-size="13" fill="#475569">refused</text><line x1="960" y1="590" x2="1160" y2="642" stroke="#475569" stroke-width="2.2"  marker-end="url(#arrow)"/>
 <rect x="985" y="598" width="150" height="24" rx="8" fill="#FFFFFF" opacity=".94"/><text x="1060" y="616" text-anchor="middle" font-family="Arial,sans-serif" font-size="13" fill="#475569">accepted / returned</text><rect x="90" y="150" width="144" height="30" rx="15" fill="#DCFCE7" stroke="#15803D"/><text x="102" y="170" font-family="Arial,sans-serif" font-size="13" font-weight="700" fill="#15803D">PUBLIC_VERIFIED</text><line x1="70" y1="845" x2="1530" y2="845" stroke="#CBD5E1"/>
 <text x="70" y="875" font-family="Arial,sans-serif" font-size="14" fill="#475569">PUBLIC_VERIFIED · EPC SCT Inst Inter-PSP IG 2025 v1.0 · Checked 2026-09-29</text></svg>