<svg xmlns="http://www.w3.org/2000/svg" width="1600" height="700" viewBox="0 0 1600 700"><defs><marker id="a" markerWidth="10" markerHeight="10" refX="9" refY="3" orient="auto"><path d="M0,0 L0,6 L9,3 z" fill="#475569"/></marker></defs><rect width="100%" height="100%" fill="white"/><text x="800" y="48" text-anchor="middle" font-family="Arial" font-size="30" font-weight="700" fill="#0F172A">FIG-06-002 — SCT Inst processing window</text><text x="800" y="78" text-anchor="middle" font-family="Arial" font-size="15" fill="#475569">Scheme total maximum: 9 seconds — no invented fixed per-hop budget</text><rect x="90" y="280" width="230" height="90" rx="15" fill="#DBEAFE" stroke="#1D4ED8" stroke-width="2"/><text x="205" y="318.5" text-anchor="middle" font-family="Arial" font-size="17" font-weight="600" fill="#0F172A"><tspan x="205" dy="0">Time of Receipt</tspan><tspan x="205" dy="23">Originator PSP</tspan></text><line x1="320" y1="325" x2="370" y2="325" stroke="#475569" stroke-width="2"  marker-end="url(#a)"/><rect x="370" y="280" width="230" height="90" rx="15" fill="#DBEAFE" stroke="#1D4ED8" stroke-width="2"/><text x="485" y="318.5" text-anchor="middle" font-family="Arial" font-size="17" font-weight="600" fill="#0F172A"><tspan x="485" dy="0">Originator PSP</tspan><tspan x="485" dy="23">processing</tspan></text><line x1="600" y1="325" x2="670" y2="325" stroke="#475569" stroke-width="2"  marker-end="url(#a)"/><rect x="670" y="280" width="230" height="90" rx="15" fill="#CCFBF1" stroke="#0F766E" stroke-width="2"/><text x="785" y="318.5" text-anchor="middle" font-family="Arial" font-size="17" font-weight="600" fill="#0F172A"><tspan x="785" dy="0">CSM</tspan><tspan x="785" dy="23">processing</tspan></text><line x1="900" y1="325" x2="970" y2="325" stroke="#475569" stroke-width="2"  marker-end="url(#a)"/><rect x="970" y="280" width="230" height="90" rx="15" fill="#DBEAFE" stroke="#1D4ED8" stroke-width="2"/><text x="1085" y="318.5" text-anchor="middle" font-family="Arial" font-size="17" font-weight="600" fill="#0F172A"><tspan x="1085" dy="0">Beneficiary PSP</tspan><tspan x="1085" dy="23">processing</tspan></text><line x1="1200" y1="325" x2="1270" y2="325" stroke="#475569" stroke-width="2"  marker-end="url(#a)"/><rect x="1270" y="280" width="230" height="90" rx="15" fill="#DCFCE7" stroke="#15803D" stroke-width="2"/><text x="1385" y="318.5" text-anchor="middle" font-family="Arial" font-size="17" font-weight="600" fill="#0F172A"><tspan x="1385" dy="0">Funds available</tspan><tspan x="1385" dy="23">beneficiary account</tspan></text><line x1="205" y1="470" x2="1385" y2="470" stroke="#7C3AED" stroke-width="4"/><line x1="205" y1="452" x2="205" y2="488" stroke="#7C3AED" stroke-width="3"/><line x1="1385" y1="452" x2="1385" y2="488" stroke="#7C3AED" stroke-width="3"/><text x="795" y="515" text-anchor="middle" font-family="Arial" font-size="20" font-weight="700" fill="#7C3AED">TOTAL SCHEME WINDOW: 9 SECONDS</text><line x1="60" y1="650" x2="1540" y2="650" stroke="#CBD5E1"/><text x="60" y="678" font-family="Arial" font-size="13" fill="#475569">PUBLIC_VERIFIED · EPC SCT Inst 2025 rulebook v1.1 · Visual System V1 · Checked 2026-09-29</text></svg>