<svg xmlns="http://www.w3.org/2000/svg" width="1400" height="980" viewBox="0 0 1400 980"><defs><marker id="a" markerWidth="10" markerHeight="10" refX="9" refY="3" orient="auto"><path d="M0,0 L0,6 L9,3 z" fill="#475569"/></marker></defs><rect width="100%" height="100%" fill="white"/><text x="700" y="48" text-anchor="middle" font-family="Arial" font-size="30" font-weight="700" fill="#0F172A">FIG-03-003 — P2P alias resolution</text><text x="700" y="78" text-anchor="middle" font-family="Arial" font-size="15" fill="#475569">Alias lookup remains distinct from financial execution</text><rect x="20" y="115" width="160" height="58" rx="15" fill="#F8FAFC" stroke="#334155" stroke-width="2"/><text x="100" y="149" text-anchor="middle" font-family="Arial" font-size="17" font-weight="600" fill="#0F172A"><tspan x="100" dy="0">Payer</tspan></text><line x1="100" y1="173" x2="100" y2="860" stroke="#94A3B8" stroke-dasharray="6 6"/><rect x="320" y="115" width="160" height="58" rx="15" fill="#E0F2FE" stroke="#0369A1" stroke-width="2"/><text x="400" y="149" text-anchor="middle" font-family="Arial" font-size="17" font-weight="600" fill="#0F172A"><tspan x="400" dy="0">App / Wallet</tspan></text><line x1="400" y1="173" x2="400" y2="860" stroke="#94A3B8" stroke-dasharray="6 6"/><rect x="620" y="115" width="160" height="58" rx="15" fill="#F1F5F9" stroke="#475569" stroke-width="2"/><text x="700" y="149" text-anchor="middle" font-family="Arial" font-size="17" font-weight="600" fill="#0F172A"><tspan x="700" dy="0">Directory</tspan></text><line x1="700" y1="173" x2="700" y2="860" stroke="#94A3B8" stroke-dasharray="6 6"/><rect x="920" y="115" width="160" height="58" rx="15" fill="#DBEAFE" stroke="#1D4ED8" stroke-width="2"/><text x="1000" y="149" text-anchor="middle" font-family="Arial" font-size="17" font-weight="600" fill="#0F172A"><tspan x="1000" dy="0">Payment Domain</tspan></text><line x1="1000" y1="173" x2="1000" y2="860" stroke="#94A3B8" stroke-dasharray="6 6"/><rect x="1220" y="115" width="160" height="58" rx="15" fill="#CCFBF1" stroke="#0F766E" stroke-width="2"/><text x="1300" y="149" text-anchor="middle" font-family="Arial" font-size="17" font-weight="600" fill="#0F172A"><tspan x="1300" dy="0">Rail</tspan></text><line x1="1300" y1="173" x2="1300" y2="860" stroke="#94A3B8" stroke-dasharray="6 6"/><line x1="100" y1="225" x2="400" y2="225" stroke="#0369A1" stroke-width="2.2" marker-end="url(#a)"/><rect x="158" y="205" width="184" height="25" rx="7" fill="white"/><text x="250" y="221" text-anchor="middle" font-family="Arial" font-size="12.5" font-weight="600" fill="#0F172A">Select alias + amount</text><line x1="400" y1="279" x2="700" y2="279" stroke="#1D4ED8" stroke-width="2.2" marker-end="url(#a)"/><rect x="458" y="259" width="184" height="25" rx="7" fill="white"/><text x="550" y="275" text-anchor="middle" font-family="Arial" font-size="12.5" font-weight="600" fill="#0F172A">Resolve alias</text><line x1="700" y1="333" x2="400" y2="333" stroke="#475569" stroke-width="2.2" marker-end="url(#a)"/><rect x="458" y="313" width="184" height="25" rx="7" fill="white"/><text x="550" y="329" text-anchor="middle" font-family="Arial" font-size="12.5" font-weight="600" fill="#0F172A">Beneficiary context</text><line x1="400" y1="387" x2="100" y2="387" stroke="#0369A1" stroke-width="2.2" marker-end="url(#a)"/><rect x="158" y="367" width="184" height="25" rx="7" fill="white"/><text x="250" y="383" text-anchor="middle" font-family="Arial" font-size="12.5" font-weight="600" fill="#0F172A">Display beneficiary</text><line x1="100" y1="441" x2="400" y2="441" stroke="#BE123C" stroke-width="2.2" marker-end="url(#a)"/><rect x="158" y="421" width="184" height="25" rx="7" fill="white"/><text x="250" y="437" text-anchor="middle" font-family="Arial" font-size="12.5" font-weight="600" fill="#0F172A">Approve / SCA</text><line x1="400" y1="495" x2="1000" y2="495" stroke="#1D4ED8" stroke-width="2.2" marker-end="url(#a)"/><rect x="608" y="475" width="184" height="25" rx="7" fill="white"/><text x="700" y="491" text-anchor="middle" font-family="Arial" font-size="12.5" font-weight="600" fill="#0F172A">Stable payment intent</text><line x1="1000" y1="549" x2="1300" y2="549" stroke="#7C3AED" stroke-width="2.2" marker-end="url(#a)"/><rect x="1058" y="529" width="184" height="25" rx="7" fill="white"/><text x="1150" y="545" text-anchor="middle" font-family="Arial" font-size="12.5" font-weight="600" fill="#0F172A">Financial submission</text><line x1="1300" y1="603" x2="1000" y2="603" stroke="#15803D" stroke-width="2.2" marker-end="url(#a)"/><rect x="1058" y="583" width="184" height="25" rx="7" fill="white"/><text x="1150" y="599" text-anchor="middle" font-family="Arial" font-size="12.5" font-weight="600" fill="#0F172A">Authoritative result</text><line x1="1000" y1="657" x2="400" y2="657" stroke="#4338CA" stroke-width="2.2" marker-end="url(#a)"/><rect x="608" y="637" width="184" height="25" rx="7" fill="white"/><text x="700" y="653" text-anchor="middle" font-family="Arial" font-size="12.5" font-weight="600" fill="#0F172A">Final state</text><line x1="60" y1="930" x2="1340" y2="930" stroke="#CBD5E1"/><text x="60" y="958" font-family="Arial" font-size="13" fill="#475569">REFERENCE_ARCHITECTURE · Visual System V1 · Checked 2026-09-29</text></svg>