<svg xmlns="http://www.w3.org/2000/svg" width="1200" height="900" viewBox="0 0 1200 900"><defs><marker id="a" markerWidth="10" markerHeight="10" refX="9" refY="3" orient="auto"><path d="M0,0 L0,6 L9,3 z" fill="#475569"/></marker></defs><rect width="100%" height="100%" fill="white"/><text x="600" y="48" text-anchor="middle" font-family="Arial" font-size="30" font-weight="700" fill="#0F172A">FIG-13-001 — Critical payment dependency map</text><text x="600" y="78" text-anchor="middle" font-family="Arial" font-size="15" fill="#475569">A business service depends on technology, external parties and evidence</text><rect x="340" y="110" width="520" height="90" rx="15" fill="#DBEAFE" stroke="#1D4ED8" stroke-width="2"/><text x="600" y="148.5" text-anchor="middle" font-family="Arial" font-size="17" font-weight="600" fill="#0F172A"><tspan x="600" dy="0">Critical Business Service</tspan><tspan x="600" dy="23">Execute Instant Payment</tspan></text><rect x="390" y="260" width="420" height="80" rx="15" fill="#E0F2FE" stroke="#0369A1" stroke-width="2"/><text x="600" y="305" text-anchor="middle" font-family="Arial" font-size="17" font-weight="600" fill="#0F172A"><tspan x="600" dy="0">Business Process</tspan></text><rect x="390" y="390" width="420" height="80" rx="15" fill="#DBEAFE" stroke="#1D4ED8" stroke-width="2"/><text x="600" y="435" text-anchor="middle" font-family="Arial" font-size="17" font-weight="600" fill="#0F172A"><tspan x="600" dy="0">Applications</tspan></text><rect x="40" y="550" width="200" height="80" rx="15" fill="#F1F5F9" stroke="#475569" stroke-width="2"/><text x="140" y="595" text-anchor="middle" font-family="Arial" font-size="17" font-weight="600" fill="#0F172A"><tspan x="140" dy="0">Data / Ledger / Broker</tspan></text><rect x="270" y="550" width="200" height="80" rx="15" fill="#FFE4E6" stroke="#BE123C" stroke-width="2"/><text x="370" y="595" text-anchor="middle" font-family="Arial" font-size="17" font-weight="600" fill="#0F172A"><tspan x="370" dy="0">IAM / PKI / HSM</tspan></text><rect x="500" y="550" width="200" height="80" rx="15" fill="#FFE4E6" stroke="#BE123C" stroke-width="2"/><text x="600" y="595" text-anchor="middle" font-family="Arial" font-size="17" font-weight="600" fill="#0F172A"><tspan x="600" dy="0">Network / DNS / Connectivity</tspan></text><rect x="730" y="550" width="200" height="80" rx="15" fill="#F8FAFC" stroke="#334155" stroke-width="2"/><text x="830" y="595" text-anchor="middle" font-family="Arial" font-size="17" font-weight="600" fill="#0F172A"><tspan x="830" dy="0">Cloud / OpenShift / Kubernetes</tspan></text><rect x="960" y="550" width="200" height="80" rx="15" fill="#CCFBF1" stroke="#0F766E" stroke-width="2"/><text x="1060" y="595" text-anchor="middle" font-family="Arial" font-size="17" font-weight="600" fill="#0F172A"><tspan x="1060" dy="0">PSP / CSM / Third Parties</tspan></text><line x1="600" y1="470" x2="140" y2="550" stroke="#475569" stroke-width="2"  marker-end="url(#a)"/><line x1="600" y1="470" x2="370" y2="550" stroke="#475569" stroke-width="2"  marker-end="url(#a)"/><line x1="600" y1="470" x2="600" y2="550" stroke="#475569" stroke-width="2"  marker-end="url(#a)"/><line x1="600" y1="470" x2="830" y2="550" stroke="#475569" stroke-width="2"  marker-end="url(#a)"/><line x1="600" y1="470" x2="1060" y2="550" stroke="#475569" stroke-width="2"  marker-end="url(#a)"/><rect x="390" y="735" width="420" height="80" rx="15" fill="#EEF2FF" stroke="#4338CA" stroke-width="2"/><text x="600" y="780" text-anchor="middle" font-family="Arial" font-size="17" font-weight="600" fill="#0F172A"><tspan x="600" dy="0">Testing / Evidence / Runbooks</tspan></text><line x1="140" y1="630" x2="600" y2="735" stroke="#475569" stroke-width="2"  marker-end="url(#a)"/><line x1="370" y1="630" x2="600" y2="735" stroke="#475569" stroke-width="2"  marker-end="url(#a)"/><line x1="600" y1="630" x2="600" y2="735" stroke="#475569" stroke-width="2"  marker-end="url(#a)"/><line x1="830" y1="630" x2="600" y2="735" stroke="#475569" stroke-width="2"  marker-end="url(#a)"/><line x1="1060" y1="630" x2="600" y2="735" stroke="#475569" stroke-width="2"  marker-end="url(#a)"/><line x1="600" y1="200" x2="600" y2="260" stroke="#475569" stroke-width="2"  marker-end="url(#a)"/><line x1="600" y1="340" x2="600" y2="390" stroke="#475569" stroke-width="2"  marker-end="url(#a)"/><line x1="60" y1="850" x2="1140" y2="850" stroke="#CBD5E1"/><text x="60" y="878" font-family="Arial" font-size="13" fill="#475569">REFERENCE_ARCHITECTURE · Visual System V1 · Checked 2026-09-29</text></svg>