<svg xmlns="http://www.w3.org/2000/svg" width="1500" height="800" viewBox="0 0 1500 800"><defs><marker id="a" markerWidth="10" markerHeight="10" refX="9" refY="3" orient="auto"><path d="M0,0 L0,6 L9,3 z" fill="#475569"/></marker></defs><rect width="100%" height="100%" fill="white"/><text x="750" y="48" text-anchor="middle" font-family="Arial" font-size="30" font-weight="700" fill="#0F172A">FIG-07-004 — Multi-CSM routing</text><text x="750" y="78" text-anchor="middle" font-family="Arial" font-size="15" fill="#475569">Route selection combines reachability, rail health and liquidity context</text><rect x="70" y="310" width="260" height="90" rx="15" fill="#DBEAFE" stroke="#1D4ED8" stroke-width="2"/><text x="200" y="360" text-anchor="middle" font-family="Arial" font-size="17" font-weight="600" fill="#0F172A"><tspan x="200" dy="0">Payment Hub</tspan></text><rect x="480" y="290" width="300" height="130" rx="15" fill="#CCFBF1" stroke="#0F766E" stroke-width="2"/><text x="630" y="348.5" text-anchor="middle" font-family="Arial" font-size="17" font-weight="600" fill="#0F172A"><tspan x="630" dy="0">Routing Policy</tspan><tspan x="630" dy="23">deterministic selection</tspan></text><rect x="430" y="100" width="250" height="75" rx="15" fill="#F1F5F9" stroke="#475569" stroke-width="2"/><text x="555" y="142.5" text-anchor="middle" font-family="Arial" font-size="17" font-weight="600" fill="#0F172A"><tspan x="555" dy="0">Reachability Directory</tspan></text><rect x="760" y="100" width="230" height="75" rx="15" fill="#EEF2FF" stroke="#4338CA" stroke-width="2"/><text x="875" y="142.5" text-anchor="middle" font-family="Arial" font-size="17" font-weight="600" fill="#0F172A"><tspan x="875" dy="0">Rail Health</tspan></text><rect x="1050" y="100" width="240" height="75" rx="15" fill="#DCFCE7" stroke="#15803D" stroke-width="2"/><text x="1170" y="142.5" text-anchor="middle" font-family="Arial" font-size="17" font-weight="600" fill="#0F172A"><tspan x="1170" dy="0">Liquidity Context</tspan></text><rect x="970" y="290" width="220" height="80" rx="15" fill="#CCFBF1" stroke="#0F766E" stroke-width="2"/><text x="1080" y="335" text-anchor="middle" font-family="Arial" font-size="17" font-weight="600" fill="#0F172A"><tspan x="1080" dy="0">TIPS Adapter</tspan></text><rect x="970" y="430" width="220" height="80" rx="15" fill="#CCFBF1" stroke="#0F766E" stroke-width="2"/><text x="1080" y="475" text-anchor="middle" font-family="Arial" font-size="17" font-weight="600" fill="#0F172A"><tspan x="1080" dy="0">RT1 Adapter</tspan></text><rect x="970" y="570" width="220" height="80" rx="15" fill="#CCFBF1" stroke="#0F766E" stroke-width="2"/><text x="1080" y="615" text-anchor="middle" font-family="Arial" font-size="17" font-weight="600" fill="#0F172A"><tspan x="1080" dy="0">Other CSM Adapter</tspan></text><line x1="330" y1="355" x2="480" y2="355" stroke="#475569" stroke-width="2"  marker-end="url(#a)"/><line x1="555" y1="175" x2="580" y2="290" stroke="#475569" stroke-width="2"  marker-end="url(#a)"/><line x1="875" y1="175" x2="650" y2="290" stroke="#475569" stroke-width="2"  marker-end="url(#a)"/><line x1="1170" y1="175" x2="710" y2="290" stroke="#475569" stroke-width="2"  marker-end="url(#a)"/><line x1="780" y1="330" x2="970" y2="330" stroke="#475569" stroke-width="2"  marker-end="url(#a)"/><line x1="780" y1="355" x2="970" y2="470" stroke="#475569" stroke-width="2"  marker-end="url(#a)"/><line x1="780" y1="380" x2="970" y2="610" stroke="#475569" stroke-width="2"  marker-end="url(#a)"/><line x1="60" y1="750" x2="1440" y2="750" stroke="#CBD5E1"/><text x="60" y="778" font-family="Arial" font-size="13" fill="#475569">REFERENCE_ARCHITECTURE · Visual System V1 · Checked 2026-09-29</text></svg>