<svg xmlns="http://www.w3.org/2000/svg" width="1550" height="780" viewBox="0 0 1550 780"><defs><marker id="a" markerWidth="10" markerHeight="10" refX="9" refY="3" orient="auto"><path d="M0,0 L0,6 L9,3 z" fill="#475569"/></marker></defs><rect width="100%" height="100%" fill="white"/><text x="775" y="48" text-anchor="middle" font-family="Arial" font-size="30" font-weight="700" fill="#0F172A">FIG-14-003 — Business and technical correlation</text><text x="775" y="78" text-anchor="middle" font-family="Arial" font-size="15" fill="#475569">One payment must remain traceable across business, ISO, event and settlement evidence</text><rect x="60" y="300" width="220" height="75" rx="15" fill="#E0F2FE" stroke="#0369A1" stroke-width="2"/><text x="170" y="342.5" text-anchor="middle" font-family="Arial" font-size="17" font-weight="600" fill="#0F172A"><tspan x="170" dy="0">Customer Request</tspan></text><rect x="340" y="300" width="250" height="75" rx="15" fill="#DBEAFE" stroke="#1D4ED8" stroke-width="2"/><text x="465" y="331" text-anchor="middle" font-family="Arial" font-size="17" font-weight="600" fill="#0F172A"><tspan x="465" dy="0">paymentId /</tspan><tspan x="465" dy="23">EndToEndId</tspan></text><rect x="700" y="140" width="250" height="75" rx="15" fill="#EEF2FF" stroke="#4338CA" stroke-width="2"/><text x="825" y="171" text-anchor="middle" font-family="Arial" font-size="17" font-weight="600" fill="#0F172A"><tspan x="825" dy="0">traceId /</tspan><tspan x="825" dy="23">correlationId</tspan></text><rect x="700" y="280" width="250" height="75" rx="15" fill="#FEF3C7" stroke="#B45309" stroke-width="2"/><text x="825" y="322.5" text-anchor="middle" font-family="Arial" font-size="17" font-weight="600" fill="#0F172A"><tspan x="825" dy="0">ISO MsgId / TxId</tspan></text><rect x="700" y="420" width="250" height="75" rx="15" fill="#EEF2FF" stroke="#4338CA" stroke-width="2"/><text x="825" y="462.5" text-anchor="middle" font-family="Arial" font-size="17" font-weight="600" fill="#0F172A"><tspan x="825" dy="0">eventId</tspan></text><rect x="1080" y="230" width="280" height="80" rx="15" fill="#DCFCE7" stroke="#15803D" stroke-width="2"/><text x="1220" y="275" text-anchor="middle" font-family="Arial" font-size="17" font-weight="600" fill="#0F172A"><tspan x="1220" dy="0">Settlement Reference</tspan></text><rect x="1080" y="430" width="280" height="80" rx="15" fill="#EEF2FF" stroke="#4338CA" stroke-width="2"/><text x="1220" y="475" text-anchor="middle" font-family="Arial" font-size="17" font-weight="600" fill="#0F172A"><tspan x="1220" dy="0">Callback ID</tspan></text><rect x="1210" y="600" width="280" height="80" rx="15" fill="#F1F5F9" stroke="#475569" stroke-width="2"/><text x="1350" y="645" text-anchor="middle" font-family="Arial" font-size="17" font-weight="600" fill="#0F172A"><tspan x="1350" dy="0">Reconciliation Record</tspan></text><line x1="280" y1="337" x2="340" y2="337" stroke="#475569" stroke-width="2"  marker-end="url(#a)"/><line x1="590" y1="325" x2="700" y2="177" stroke="#475569" stroke-width="2"  marker-end="url(#a)"/><line x1="590" y1="337" x2="700" y2="317" stroke="#475569" stroke-width="2"  marker-end="url(#a)"/><line x1="590" y1="350" x2="700" y2="457" stroke="#475569" stroke-width="2"  marker-end="url(#a)"/><line x1="950" y1="317" x2="1080" y2="270" stroke="#475569" stroke-width="2"  marker-end="url(#a)"/><line x1="950" y1="457" x2="1080" y2="470" stroke="#475569" stroke-width="2"  marker-end="url(#a)"/><line x1="1220" y1="310" x2="1350" y2="600" stroke="#475569" stroke-width="2"  marker-end="url(#a)"/><line x1="1220" y1="510" x2="1350" y2="600" stroke="#475569" stroke-width="2"  marker-end="url(#a)"/><line x1="60" y1="730" x2="1490" y2="730" stroke="#CBD5E1"/><text x="60" y="758" font-family="Arial" font-size="13" fill="#475569">REFERENCE_ARCHITECTURE · Visual System V1 · Checked 2026-09-29</text></svg>